<?xml version="1.0" encoding="utf-8"?>
	<svg
	xmlns="http://www.w3.org/2000/svg"
	version="1.1"
	width="1920"
	height="1080">
<title>Test</title>
<polygon points="0,1080 1920,1080 1920,0 0,0 " fill="green" />
<polygon points="489.117,-1542.34 558.367,-100.23 729.504,88.5044 854.381,13.0536 916.825,-288.252 838.274,-2131.07 " fill="rgb(210,210,210)" />
<polygon points="164.028,758.346 159.869,704.785 -891.091,671.985 -1044.27,689.43 " fill="rgb(123,123,123)" />
<polygon points="819.679,3080.49 29.7309,2011.93 -311.476,1598.64 -417.533,1483.07 -1368.95,715.591 -1656.96,540 nan,nan 960,3373.44 " fill="rgb(184,184,184)" />
<polygon points="308.808,912.714 334.64,933.332 412.491,927.925 463.428,879.519 456.632,872.75 330.524,816.663 311.458,821.735 307.559,908.81 " fill="rgb(237,237,237)" />
<polygon points="615.906,467.237 641.42,446.401 570.338,323.133 456.491,327.168 443.286,404.731 547.822,475.003 " fill="rgb(26,26,26)" />
<polygon points="674.633,639.991 612.806,643.902 556.18,730.049 584.817,787.996 758.731,734.914 " fill="rgb(68,68,68)" />
<polygon points="1054.16,52.6678 1044.53,100.374 1190.69,190.874 1238.1,145.394 1196.27,60.4333 " fill="rgb(74,74,74)" />
<polygon points="450.701,319.751 481.979,225.871 381.936,131.949 351.628,137.79 417.502,304.014 " fill="rgb(1,1,1)" />
<polygon points="1576.87,848.488 1530.97,926.056 1538.41,949.347 1631.02,959.581 1704.48,884.816 1699.76,876.896 " fill="rgb(199,199,199)" />
<polygon points="1576.81,847.399 1434.93,715.658 1393.91,798.031 1394.38,842.871 1439.14,895.772 1530.97,926.056 1576.87,848.488 " fill="rgb(83,83,83)" />
<polygon points="1852.2,820.533 1722.03,899.169 1727.75,910.103 1796.45,984.503 2070,873.422 " fill="rgb(223,223,223)" />
<polygon points="1434.93,715.658 1439.17,665.957 1393.25,662.75 1266.18,718.853 1261.02,776.542 1393.91,798.031 " fill="rgb(57,57,57)" />
<polygon points="1223.75,593.635 1253.71,705.129 1266.18,718.853 1393.25,662.75 1233.37,588.758 " fill="rgb(57,57,57)" />
<polygon points="1590.99,1702.93 1516.42,1130.61 1382.13,983.122 1282.67,994.595 1277.91,999.34 1260.97,2872.23 1562.61,2425.18 " fill="rgb(86,86,86)" />
<polygon points="1352.74,415.358 1251.48,333.824 1233.53,328.44 1167.22,424.155 1296.44,479.672 1313.03,472.206 " fill="rgb(219,219,219)" />
<polygon points="808.529,375.412 893.513,452.264 870.921,293.961 " fill="rgb(102,102,102)" />
<polygon points="159.869,704.785 164.028,758.346 169.423,772.256 293.308,808.373 314.515,686.138 164.311,614.231 " fill="rgb(226,226,226)" />
<polygon points="303.207,317.335 245.027,416.156 257.1,466.577 375.293,480.943 443.286,404.731 456.491,327.168 450.701,319.751 417.502,304.014 " fill="rgb(186,186,186)" />
<polygon points="220.962,98.8397 -224.216,-580.724 -806.494,-67.241 19.3991,314.118 97.0463,339.017 132.278,332.689 220.024,138.702 " fill="rgb(250,250,250)" />
<polygon points="1562.61,2425.18 2967.34,969.26 2157.16,865.54 2070,873.422 1796.45,984.503 1724.15,1118.7 1590.99,1702.93 " fill="rgb(161,161,161)" />
<polygon points="902.661,545.215 926.7,547.267 1092.77,474.144 1107.26,435.458 1081.83,383.18 988.967,325.469 898.598,458.449 " fill="rgb(221,221,221)" />
<polygon points="1091.14,694.639 926.7,547.267 902.661,545.215 882.404,559.605 847.269,774.588 874.291,840.701 917.746,836.264 1084.96,746.7 1090.05,723.064 " fill="rgb(71,71,71)" />
<polygon points="699.729,273.901 723.311,394.383 783.565,373.606 783.292,312.678 721.07,258.259 " fill="rgb(31,31,31)" />
<polygon points="534.936,69.8459 533.108,66.1212 381.936,131.949 481.979,225.871 554.236,147.748 " fill="rgb(176,176,176)" />
<polygon points="282.814,958.526 -311.476,1598.64 29.7309,2011.93 330.217,1074.08 " fill="rgb(113,113,113)" />
<polygon points="729.504,88.5044 558.367,-100.23 533.108,66.1212 534.936,69.8459 717.369,124.643 " fill="rgb(206,206,206)" />
<polygon points="763.583,203.759 841.713,204.625 867.371,63.9991 854.381,13.0536 729.504,88.5044 717.369,124.643 719.647,147.857 " fill="rgb(209,209,209)" />
<polygon points="220.962,98.8397 351.628,137.79 381.936,131.949 533.108,66.1212 558.367,-100.23 489.117,-1542.34 -224.216,-580.724 " fill="rgb(230,230,230)" />
<polygon points="1678.33,638.558 1676.74,622.972 1643.66,570.187 1584.12,576.787 1452.86,649.474 1439.17,665.957 1434.93,715.658 1576.81,847.399 " fill="rgb(211,211,211)" />
<polygon points="717.369,124.643 534.936,69.8459 554.236,147.748 596.403,194.89 719.647,147.857 " fill="rgb(124,124,124)" />
<polygon points="-1368.95,715.591 -417.533,1483.07 66.0838,946.949 169.423,772.256 164.028,758.346 -1044.27,689.43 " fill="rgb(17,17,17)" />
<polygon points="570.338,323.133 641.42,446.401 685.626,446.977 723.311,394.383 699.729,273.901 613.131,263.12 " fill="rgb(134,134,134)" />
<polygon points="1223.75,593.635 1233.37,588.758 1296.44,479.672 1167.22,424.155 1107.26,435.458 1092.77,474.144 1163.5,597.207 " fill="rgb(218,218,218)" />
<polygon points="1054.16,52.6678 916.825,-288.252 854.381,13.0536 867.371,63.9991 1007.42,146.179 1044.53,100.374 " fill="rgb(180,180,180)" />
<polygon points="1211.41,288.19 1233.53,328.44 1251.48,333.824 1352.86,246.313 " fill="rgb(89,89,89)" />
<polygon points="445.793,1006.39 369.399,1000.7 330.217,1074.08 29.7309,2011.93 819.679,3080.49 819.038,3038.29 751.904,1893.77 461.533,1013.02 " fill="rgb(101,101,101)" />
<polygon points="2328.61,-398.421 1432.82,-1549.49 1415.17,-1134.38 1418.47,-963.46 1506.99,68.5382 1648.89,234.568 " fill="rgb(216,216,216)" />
<polygon points="1724.15,1118.7 1796.45,984.503 1727.75,910.103 1666.5,989.313 " fill="rgb(7,7,7)" />
<polygon points="1734.18,749.604 1699.76,876.896 1704.48,884.816 1722.03,899.169 1852.2,820.533 " fill="rgb(191,191,191)" />
<polygon points="311.458,821.735 293.308,808.373 169.423,772.256 66.0838,946.949 307.559,908.81 " fill="rgb(233,233,233)" />
<polygon points="960,-2388.76 1432.82,-1549.49 2328.61,-398.421 3063.09,205.755 3598.05,540 nan,nan " fill="rgb(9,9,9)" />
<polygon points="1704.48,884.816 1631.02,959.581 1666.5,989.313 1727.75,910.103 1722.03,899.169 " fill="rgb(197,197,197)" />
<polygon points="1238.1,145.394 1190.69,190.874 1170.88,233.25 1171.59,238.003 1211.41,288.19 1352.86,246.313 1376.48,231.118 1327.25,146.417 " fill="rgb(31,31,31)" />
<polygon points="1439.17,665.957 1452.86,649.474 1313.03,472.206 1296.44,479.672 1233.37,588.758 1393.25,662.75 " fill="rgb(97,97,97)" />
<polygon points="719.647,147.857 596.403,194.89 613.131,263.12 699.729,273.901 721.07,258.259 763.583,203.759 " fill="rgb(153,153,153)" />
<polygon points="838.274,-2131.07 916.825,-288.252 1054.16,52.6678 1196.27,60.4333 1415.17,-1134.38 1432.82,-1549.49 960,-2388.76 " fill="rgb(102,102,102)" />
<polygon points="1306.83,894.794 1282.67,994.595 1382.13,983.122 1439.14,895.772 1394.38,842.871 " fill="rgb(78,78,78)" />
<polygon points="193.986,554.205 257.1,466.577 245.027,416.156 132.278,332.689 97.0463,339.017 63.6052,551.305 159.059,581.636 " fill="rgb(115,115,115)" />
<polygon points="594.315,884.976 769.663,1017.27 776.801,1006.9 874.291,840.701 847.269,774.588 758.731,734.914 584.817,787.996 " fill="rgb(127,127,127)" />
<polygon points="547.822,475.003 482.329,559.018 485.303,563.778 596.472,609.19 615.906,467.237 " fill="rgb(92,92,92)" />
<polygon points="2157.16,865.54 1846.68,650.236 1676.74,622.972 1678.33,638.558 1734.18,749.604 1852.2,820.533 2070,873.422 " fill="rgb(18,18,18)" />
<polygon points="960,-2388.76 nan,nan -1656.96,540 -806.494,-67.241 -224.216,-580.724 489.117,-1542.34 838.274,-2131.07 " fill="rgb(192,192,192)" />
<polygon points="763.88,536.238 674.633,639.991 758.731,734.914 847.269,774.588 882.404,559.605 " fill="rgb(145,145,145)" />
<polygon points="1334.04,136.506 1506.99,68.5382 1418.47,-963.46 " fill="rgb(100,100,100)" />
<polygon points="1352.74,415.358 1313.03,472.206 1452.86,649.474 1584.12,576.787 1393.83,393.954 " fill="rgb(29,29,29)" />
<polygon points="893.513,452.264 808.529,375.412 783.565,373.606 723.311,394.383 685.626,446.977 763.88,536.238 882.404,559.605 902.661,545.215 898.598,458.449 " fill="rgb(160,160,160)" />
<polygon points="1071.96,1179.31 1084.14,991.207 776.801,1006.9 769.663,1017.27 751.904,1893.77 819.038,3038.29 " fill="rgb(64,64,64)" />
<polygon points="763.583,203.759 721.07,258.259 783.292,312.678 872.086,234.744 841.713,204.625 " fill="rgb(156,156,156)" />
<polygon points="-311.476,1598.64 282.814,958.526 308.808,912.714 307.559,908.81 66.0838,946.949 -417.533,1483.07 " fill="rgb(138,138,138)" />
<polygon points="412.491,927.925 334.64,933.332 369.399,1000.7 445.793,1006.39 " fill="rgb(108,108,108)" />
<polygon points="-1044.27,689.43 -891.091,671.985 33.7733,552.324 19.3991,314.118 -806.494,-67.241 -1656.96,540 -1368.95,715.591 " fill="rgb(99,99,99)" />
<polygon points="1261.02,776.542 1213.37,818.967 1306.83,894.794 1394.38,842.871 1393.91,798.031 " fill="rgb(211,211,211)" />
<polygon points="1352.86,246.313 1251.48,333.824 1352.74,415.358 1393.83,393.954 1441.4,288.961 1376.48,231.118 " fill="rgb(150,150,150)" />
<polygon points="596.403,194.89 554.236,147.748 481.979,225.871 450.701,319.751 456.491,327.168 570.338,323.133 613.131,263.12 " fill="rgb(153,153,153)" />
<polygon points="1092.77,474.144 926.7,547.267 1091.14,694.639 1163.5,597.207 " fill="rgb(163,163,163)" />
<polygon points="1084.96,746.7 1170.03,825.516 1213.37,818.967 1261.02,776.542 1266.18,718.853 1253.71,705.129 1090.05,723.064 " fill="rgb(104,104,104)" />
<polygon points="132.278,332.689 245.027,416.156 303.207,317.335 220.024,138.702 " fill="rgb(53,53,53)" />
<polygon points="1163.5,597.207 1091.14,694.639 1090.05,723.064 1253.71,705.129 1223.75,593.635 " fill="rgb(19,19,19)" />
<polygon points="870.921,293.961 893.513,452.264 898.598,458.449 988.967,325.469 964.193,258.923 892.331,248.586 " fill="rgb(25,25,25)" />
<polygon points="1209.07,968.419 1277.91,999.34 1282.67,994.595 1306.83,894.794 1213.37,818.967 1170.03,825.516 1153.32,930.493 " fill="rgb(85,85,85)" />
<polygon points="330.524,816.663 456.632,872.75 465.895,713.38 465.638,713.27 449.411,713.212 " fill="rgb(111,111,111)" />
<polygon points="159.869,704.785 164.311,614.231 159.059,581.636 63.6052,551.305 33.7733,552.324 -891.091,671.985 " fill="rgb(182,182,182)" />
<polygon points="461.533,1013.02 532.354,902.067 463.428,879.519 412.491,927.925 445.793,1006.39 " fill="rgb(70,70,70)" />
<polygon points="819.679,3080.49 960,3373.44 1260.97,2872.23 1277.91,999.34 1209.07,968.419 1071.96,1179.31 819.038,3038.29 " fill="rgb(6,6,6)" />
<polygon points="1334.04,136.506 1418.47,-963.46 1415.17,-1134.38 1196.27,60.4333 1238.1,145.394 1327.25,146.417 " fill="rgb(144,144,144)" />
<polygon points="1646.39,241.532 1441.4,288.961 1393.83,393.954 1584.12,576.787 1643.66,570.187 1707.14,434.754 " fill="rgb(168,168,168)" />
<polygon points="1170.03,825.516 1084.96,746.7 917.746,836.264 1091.45,964.699 1153.32,930.493 " fill="rgb(253,253,253)" />
<polygon points="461.533,1013.02 751.904,1893.77 769.663,1017.27 594.315,884.976 532.354,902.067 " fill="rgb(2,2,2)" />
<polygon points="964.193,258.923 988.967,325.469 1081.83,383.18 1171.59,238.003 1170.88,233.25 994.935,224.834 " fill="rgb(212,212,212)" />
<polygon points="1646.39,241.532 1707.14,434.754 1983.44,431.195 3063.09,205.755 2328.61,-398.421 1648.89,234.568 " fill="rgb(105,105,105)" />
<polygon points="892.331,248.586 872.086,234.744 783.292,312.678 783.565,373.606 808.529,375.412 870.921,293.961 " fill="rgb(34,34,34)" />
<polygon points="2157.16,865.54 2967.34,969.26 3598.05,540 3063.09,205.755 1983.44,431.195 1846.68,650.236 " fill="rgb(153,153,153)" />
<polygon points="465.638,713.27 465.895,713.38 556.18,730.049 612.806,643.902 596.472,609.19 485.303,563.778 " fill="rgb(180,180,180)" />
<polygon points="220.024,138.702 303.207,317.335 417.502,304.014 351.628,137.79 220.962,98.8397 " fill="rgb(6,6,6)" />
<polygon points="1648.89,234.568 1506.99,68.5382 1334.04,136.506 1327.25,146.417 1376.48,231.118 1441.4,288.961 1646.39,241.532 " fill="rgb(188,188,188)" />
<polygon points="334.64,933.332 308.808,912.714 282.814,958.526 330.217,1074.08 369.399,1000.7 " fill="rgb(97,97,97)" />
<polygon points="1084.14,991.207 1091.45,964.699 917.746,836.264 874.291,840.701 776.801,1006.9 " fill="rgb(126,126,126)" />
<polygon points="443.286,404.731 375.293,480.943 406.047,533.083 482.329,559.018 547.822,475.003 " fill="rgb(60,60,60)" />
<polygon points="1590.99,1702.93 1724.15,1118.7 1666.5,989.313 1631.02,959.581 1538.41,949.347 1516.42,1130.61 " fill="rgb(13,13,13)" />
<polygon points="482.329,559.018 406.047,533.083 370.031,638.348 370.747,641.402 449.411,713.212 465.638,713.27 485.303,563.778 " fill="rgb(88,88,88)" />
<polygon points="1071.96,1179.31 1209.07,968.419 1153.32,930.493 1091.45,964.699 1084.14,991.207 " fill="rgb(207,207,207)" />
<polygon points="330.524,816.663 449.411,713.212 370.747,641.402 314.515,686.138 293.308,808.373 311.458,821.735 " fill="rgb(69,69,69)" />
<polygon points="314.515,686.138 370.747,641.402 370.031,638.348 193.986,554.205 159.059,581.636 164.311,614.231 " fill="rgb(48,48,48)" />
<polygon points="63.6052,551.305 97.0463,339.017 19.3991,314.118 33.7733,552.324 " fill="rgb(21,21,21)" />
<polygon points="1211.41,288.19 1171.59,238.003 1081.83,383.18 1107.26,435.458 1167.22,424.155 1233.53,328.44 " fill="rgb(22,22,22)" />
<polygon points="375.293,480.943 257.1,466.577 193.986,554.205 370.031,638.348 406.047,533.083 " fill="rgb(206,206,206)" />
<polygon points="1260.97,2872.23 960,3373.44 nan,nan 3598.05,540 2967.34,969.26 1562.61,2425.18 " fill="rgb(129,129,129)" />
<polygon points="1643.66,570.187 1676.74,622.972 1846.68,650.236 1983.44,431.195 1707.14,434.754 " fill="rgb(158,158,158)" />
<polygon points="1576.87,848.488 1699.76,876.896 1734.18,749.604 1678.33,638.558 1576.81,847.399 " fill="rgb(57,57,57)" />
<polygon points="1007.42,146.179 994.935,224.834 1170.88,233.25 1190.69,190.874 1044.53,100.374 " fill="rgb(108,108,108)" />
<polygon points="892.331,248.586 964.193,258.923 994.935,224.834 1007.42,146.179 867.371,63.9991 841.713,204.625 872.086,234.744 " fill="rgb(92,92,92)" />
<polygon points="594.315,884.976 584.817,787.996 556.18,730.049 465.895,713.38 456.632,872.75 463.428,879.519 532.354,902.067 " fill="rgb(123,123,123)" />
<polygon points="1530.97,926.056 1439.14,895.772 1382.13,983.122 1516.42,1130.61 1538.41,949.347 " fill="rgb(121,121,121)" />
<polygon points="615.906,467.237 596.472,609.19 612.806,643.902 674.633,639.991 763.88,536.238 685.626,446.977 641.42,446.401 " fill="rgb(219,219,219)" />
</svg>
